<svg xmlns="http://www.w3.org/2000/svg" xmlns:xlink="http://www.w3.org/1999/xlink" width="109" height="132" viewBox="0 0 109 132">
  <defs>
    <path id="donate-a" d="M11.2274288,16.9376176 C10.4963984,17.6013162 9.37099641,17.6013162 8.63996603,16.9279988 L8.53415896,16.8318105 C3.48427816,12.2628708 0.185022671,9.27141756 0.310067341,5.53931513 C0.367780266,3.90411562 1.20461766,2.33624785 2.56087138,1.41284107 C5.10024002,-0.31854665 8.23597556,0.489434288 9.92888802,2.47091134 C11.6218004,0.489434288 14.757536,-0.328165471 17.2969046,1.41284107 C18.6531584,2.33624785 19.4899957,3.90411562 19.5477086,5.53931513 C19.6823721,9.27141756 16.3734979,12.2628708 11.323617,16.8510482 L11.2274288,16.9376176 Z"/>
  </defs>
  <g fill="none" fill-rule="evenodd">
    <circle cx="59.876" cy="69.972" r="6.709" fill="#FFD071" fill-rule="nonzero"/>
    <path fill="#FFBA2D" fill-rule="nonzero" d="M59.8760835,63.2633084 C63.581365,63.2633084 66.5850891,66.2670325 66.5850891,69.972314 C66.5850891,73.6775954 63.581365,76.6813195 59.8760835,76.6813195 C56.1708021,76.6813195 53.167078,73.6775954 53.167078,69.972314 C53.167078,66.2670325 56.1708021,63.2633084 59.8760835,63.2633084 Z M59.8760835,64.2546536 C56.7183069,64.2546536 54.1584231,66.8145373 54.1584231,69.972314 C54.1584231,73.1300906 56.7183069,75.6899744 59.8760835,75.6899744 C63.0338601,75.6899744 65.5937439,73.1300906 65.5937439,69.972314 C65.5937439,66.8145373 63.0338601,64.2546536 59.8760835,64.2546536 Z"/>
    <path fill="#933A31" fill-rule="nonzero" d="M1.61713173,3.78260122 C30.3661402,49.3844768 46.8885589,72.1854145 51.1843877,72.1854145 C57.628131,72.1854145 46.7233347,64.7503261 46.7233347,56.8195652 C46.7233347,52.2200795 51.7582073,52.1986599 56.6367859,56.8195652 C60.1702001,60.166354 63.1101139,65.1371507 64.5675468,63.2633084 C66.5658714,60.6940339 63.428496,54.1540912 58.1238036,48.3931316 C55.6133414,45.6667396 78.4766664,43.0508073 78.4617425,40.7652439 C78.4463785,38.4796804 73.6822819,39.6425631 58.1238036,39.9666981 C56.9205358,39.9917662 69.9913323,29.5865137 66.5502371,29.5575744 C64.2548564,29.5382703 45.1913871,39.8506283 44.2449719,39.9666981 C36.6947619,40.8926673 28.9292251,27.8399565 20.9483616,0.808565863 L1.61713173,3.78260122 Z"/>
    <path fill="#4C1813" fill-rule="nonzero" d="M59.0202645,39.4510698 C61.0852336,39.4026875 63.0628774,39.3378 65.1423214,39.2540655 L71.2438386,38.9852295 L72.5732545,38.9321737 L73.2617879,38.910319 C74.1320165,38.8858952 74.8175703,38.880398 75.3975153,38.8945834 L75.7667346,38.9068522 C77.9603069,39.0003847 78.9488427,39.4888177 78.9574597,40.7620058 C78.9628999,41.6043217 77.8861616,42.1627628 75.5797578,42.8641618 L74.91181,43.062396 C74.0678389,43.3073003 73.2655416,43.5166168 71.7939832,43.8717952 L66.3801979,45.157682 L65.369778,45.4047175 C63.3750685,45.8987507 62.0451941,46.2712027 60.9162772,46.6593344 L60.5228256,46.7983203 C59.624924,47.125394 58.9933723,47.4326044 58.6515509,47.7093341 L58.5574822,47.7876441 C58.4110976,47.9147417 58.4040426,47.9583404 58.4689911,48.035432 L58.8251777,48.4271317 C64.2713906,54.4739975 67.0635319,60.8615472 64.9588071,63.567622 C64.1712845,64.5801509 63.1070362,64.2922917 61.8001231,63.1078416 L61.5925408,62.9148983 C61.2407904,62.5800392 60.8563249,62.1751506 60.3819086,61.6462864 L59.7802963,60.9639389 C59.3642071,60.4875468 58.6754769,59.6986437 58.325641,59.3041492 L57.8470596,58.7729639 C57.2886479,58.1618108 56.7879308,57.6454528 56.295925,57.1794333 C51.679418,52.8067577 47.2190072,52.8131491 47.2190072,56.8195652 C47.2190072,59.2629324 48.2317432,61.7273341 50.2248693,64.8577577 L50.4750127,65.2457747 C50.5070018,65.294643 50.5420122,65.3478866 50.5795308,65.4047535 L52.3345384,68.0310796 L52.5432251,68.3549108 C53.0060611,69.082798 53.3029741,69.6226977 53.4922216,70.1015717 C54.1452898,71.7541032 53.3652594,72.6810871 51.1843877,72.6810871 C46.6850638,72.6810871 30.8883995,51.0058716 2.92507902,6.78266763 L0.794773622,3.40761365 L21.3010982,0.252794492 L21.6607945,1.46716316 C29.4811527,27.6954337 37.0834049,40.3456171 44.1846339,39.4747117 L44.2147631,39.4670864 C44.4286898,39.3989979 45.4907077,38.8937585 47.2227104,38.0269228 L56.0621989,33.5733879 L57.1013061,33.0589074 C62.4979365,30.3973369 65.5748121,29.053681 66.5544055,29.0619193 C67.2315704,29.0676142 67.6743336,29.433638 67.6208196,30.0545091 C67.5869978,30.4469107 67.3473253,30.9069003 66.920855,31.4860325 C66.3115487,32.3134497 65.3258864,33.3728024 63.9186999,34.7512464 L63.542016,35.1181362 L62.3108323,36.2928914 C61.4406619,37.1155229 59.9538857,38.5207825 59.5521133,38.9153277 L59.2112598,39.254857 L59.0202645,39.4510698 Z M2.43962267,4.15756835 L3.28246595,5.4924985 L4.93063531,8.09687085 C31.6263484,50.213823 47.3214586,71.6897419 51.1843877,71.6897419 L51.4154649,71.6873899 C52.664771,71.6604037 52.9015881,71.3956105 52.6230558,70.6066027 L52.5702603,70.4659239 C52.3959554,70.0248609 52.093405,69.4855603 51.6015007,68.7227043 L51.2756928,68.2278109 C50.9586489,67.7556411 50.1230966,66.5152756 49.694311,65.8630015 L49.3890598,65.3908701 C47.3017661,62.1131632 46.2276621,59.4989219 46.2276621,56.8195652 C46.2276621,51.6128048 51.8519712,51.6047457 56.9776468,56.4596969 C57.4882111,56.9432946 58.00414,57.4752725 58.5766213,58.1017527 L59.1231054,58.709371 L60.9864778,60.835025 L61.2403989,61.1181285 C61.6485038,61.5692478 61.9838469,61.9193695 62.2872867,62.2075192 L62.4658491,62.3732846 C63.4014763,63.2212398 63.8731007,63.3488053 64.1762866,62.9589949 C65.8914955,60.7537264 63.1115696,54.5416602 57.7591682,48.7288879 C57.2196636,48.1429795 57.373038,47.4688929 58.0277751,46.9388349 C58.5006888,46.5559763 59.2757796,46.1871795 60.3635638,45.8022157 L60.6336307,45.7082325 C62.0463278,45.2248077 63.7463858,44.7693245 66.5900268,44.0874864 L69.9924462,43.278884 C75.6980068,41.9048047 77.9687988,41.1856824 77.9660812,40.7685742 C77.9626331,40.2564744 77.5077151,40.0016771 76.0164102,39.9121662 L75.7245026,39.8972974 L75.4618126,39.8879863 C74.7846341,39.8685907 73.9477628,39.878269 72.8096105,39.9160409 L71.9415557,39.9478623 L65.0683623,40.2491776 C62.7226264,40.3430259 60.5016146,40.4129404 58.1341278,40.4622631 C57.7207666,40.4708748 57.4595855,40.1056161 57.5792959,39.7222552 C57.6227596,39.5830672 57.7091485,39.4483333 57.8458676,39.2775845 C58.0002031,39.0848345 58.2305183,38.8357976 58.5479757,38.5156914 L58.857517,38.208008 C59.3385337,37.7356439 61.3259082,35.8603277 62.0253311,35.1984609 L62.8522338,34.406121 L63.2199477,34.0479757 C64.5934138,32.7026401 65.552429,31.6724668 66.1225966,30.8981986 C66.3714885,30.560212 66.5309457,30.2867315 66.5978597,30.1067441 L66.6151546,30.0555817 L66.5460687,30.0532294 C65.7489179,30.0465254 62.1959585,31.6336998 56.4626481,34.4815209 L55.0115418,35.2057548 L47.0691663,39.2119578 L46.2115679,39.6357004 C45.1475174,40.156055 44.5964212,40.3991817 44.3525871,40.4506094 L44.3053098,40.4586845 C36.4181711,41.4259751 28.6107574,28.3752273 20.5959185,1.36429208 L2.43962267,4.15756835 Z"/>
    <g transform="translate(22.122 78.125)">
      <path fill="#FFB7D3" fill-rule="nonzero" d="M9.34881489,0.878469624 L65.4268642,0.996935222 C66.3432804,0.998871163 67.2085504,1.41956677 67.7760608,2.13911821 L73.877638,9.87536174 L73.877638,9.87536174 L73.877638,38.2149138 C73.877638,40.8942653 71.7162397,43.0663089 69.0500197,43.0663089 L5.70525622,43.0663089 C3.03903629,43.0663089 0.877637979,40.8942653 0.877637979,38.2149138 L0.877637979,9.87536174 L6.97442071,2.03664109 C7.5441559,1.30412441 8.42081972,0.876509222 9.34881489,0.878469624 Z"/>
      <path fill="#FF9AC2" fill-rule="nonzero" d="M0.877637979,10 L73.877638,10 L73.877638,47.2149138 C73.877638,49.8942653 71.7162397,52.0663089 69.0500197,52.0663089 L5.70525622,52.0663089 C3.03903629,52.0663089 0.877637979,49.8942653 0.877637979,47.2149138 L0.877637979,10 L0.877637979,10 Z"/>
      <g transform="translate(27.563 21.685)">
        <mask id="donate-b" fill="#fff">
          <use xlink:href="#donate-a"/>
        </mask>
        <g fill="#FFF" fill-rule="nonzero" mask="url(#donate-b)">
          <rect width="23.085" height="23.085" transform="translate(-1.617 -2.426)"/>
        </g>
      </g>
      <path fill="#FF6DA7" fill-rule="nonzero" d="M28.6444631,6.48701768 L46.8757089,6.48701768 C47.2316361,6.48701768 47.520172,6.15413743 47.520172,5.74350884 C47.520172,5.33288024 47.2316361,5 46.8757089,5 L28.6444631,5 C28.288536,5 28,5.33288024 28,5.74350884 C28,6.15413743 28.288536,6.48701768 28.6444631,6.48701768 Z"/>
    </g>
    <g transform="translate(24.257 47.456)">
      <g transform="matrix(-1 0 0 1 61.376 7.38)">
        <path stroke="#69CAB7" d="M14.1004767,10.8656432 C12.6130434,9.54287414 10.9656121,8.86599503 9.15818253,8.83500585 C7.35075295,8.80401668 5.72554365,9.42478495 4.28255462,10.6973107" transform="rotate(-46 9.192 9.85)"/>
        <path stroke="#4BE6C8" d="M13.7774798,8.30397921 C11.5352296,6.30995426 9.05178829,5.28958429 6.32715564,5.24286928 C3.60252304,5.19615428 1.15258067,6.13193926 -1.02267145,8.05022424" transform="rotate(-46 6.377 6.773)"/>
      </g>
      <polygon fill="#7282FF" fill-rule="nonzero" points="48.344 21.336 72.508 1.261 71.558 .117 47.394 20.192"/>
      <polygon fill="#4BE6C8" fill-rule="nonzero" points="8.64 15.092 12.606 25.006 13.986 24.453 10.021 14.54"/>
      <polygon fill="#FF5419" fill-opacity=".67" fill-rule="nonzero" points="13.587 23.519 6.648 25.501 7.056 26.932 13.995 24.948"/>
      <polygon fill="#FF5419" fill-opacity=".67" fill-rule="nonzero" points="5.161 25.997 .604 27.299 1.013 28.729 5.569 27.427"/>
      <path fill="#FF5419" fill-opacity=".67" fill-rule="nonzero" d="M70.7763892,17.4029785 C69.9307324,16.726453 68.5723618,16.6302852 67.5375497,17.126995 C66.2997484,17.7211396 65.7951972,19.000977 66.3928085,20.4950053 C66.569835,20.9375714 66.8928697,21.3777189 67.3262242,21.787691 C66.156114,22.7714179 65.0669871,23.1795372 64.4964287,22.8532098 L64.4411177,22.8181231 C64.1048994,22.5823834 63.641236,22.6638375 63.4054964,23.0000557 C63.1697568,23.3362738 63.2512108,23.7999373 63.587429,24.0356768 C64.9348599,24.980429 66.7844307,24.2901176 68.5511521,22.6943914 C69.5978202,23.3093763 70.9057157,23.757814 72.2717097,23.8817188 C75.8332257,24.2047722 79.50286,22.5156764 82.8036984,18.5021639 C83.0645304,18.1850164 83.018878,17.7164714 82.7017301,17.4556395 C82.3845823,17.1948075 81.9160378,17.2404601 81.6552058,17.5576077 C78.6553068,21.205206 75.4566932,22.6774957 72.4060408,22.400781 C71.4639657,22.3153285 70.5612799,22.0429884 69.802904,21.68034 L69.6305037,21.5950928 C71.0903763,19.9241532 71.7939175,18.2170012 70.7763892,17.4029785 Z M67.7734698,19.9427409 C67.4675149,19.1778536 67.6463508,18.724221 68.1810284,18.4675758 C68.6803265,18.2279126 69.356065,18.25482 69.7548002,18.4993129 C69.7373933,18.6507549 69.6590986,18.878255 69.5211654,19.1509012 C69.298916,19.5902112 68.9503201,20.0945206 68.5286704,20.5893061 L68.3854878,20.7537796 C68.0903911,20.4827962 67.8784211,20.2051191 67.7734698,19.9427409 Z" transform="rotate(166 73.122 20.64)"/>
    </g>
    <rect width="73" height="2" x="23" y="88" fill="#FF6DA7"/>
  </g>
</svg>
