<svg id="svg" xmlns="http://www.w3.org/2000/svg" xmlns:xlink="http://www.w3.org/1999/xlink" width="400" height="170.03654080389768" viewBox="0, 0, 400,170.03654080389768"><g id="svgg"><path id="path0" d="M77.710 0.149 C 55.839 2.666,39.263 10.404,24.833 24.833 C 4.589 45.078,-4.103 74.043,1.606 102.236 C 8.535 136.447,36.313 163.278,70.767 169.036 C 111.963 175.921,152.077 152.172,165.565 112.911 C 183.081 61.928,150.055 8.288,96.408 0.588 C 93.799 0.214,79.971 -0.111,77.710 0.149 M94.762 12.530 C 131.594 18.011,158.110 48.326,158.110 84.954 C 158.111 139.336,100.896 174.760,52.354 150.432 C 13.873 131.146,0.229 82.812,22.992 46.407 C 38.165 22.140,67.209 8.430,94.762 12.530 M37.576 60.194 L 30.694 64.340 30.696 79.734 C 30.697 96.351,30.772 97.598,32.022 101.894 C 35.396 113.484,46.382 120.586,59.643 119.751 C 73.621 118.870,82.834 110.288,84.506 96.590 C 84.808 94.115,84.894 56.029,84.597 56.029 C 84.500 56.029,81.270 57.916,77.421 60.223 L 70.422 64.417 70.339 80.016 C 70.247 97.211,70.290 96.706,68.656 100.000 C 63.558 110.277,49.626 109.076,45.989 98.045 C 44.928 94.829,44.823 92.639,44.823 73.700 C 44.823 63.981,44.741 56.033,44.641 56.039 C 44.540 56.044,41.361 57.914,37.576 60.194 M89.160 87.594 C 89.160 113.930,89.214 119.146,89.488 119.080 C 89.668 119.037,92.901 117.138,96.672 114.860 L 103.528 110.719 103.530 106.179 L 103.532 101.640 110.901 101.518 C 130.252 101.197,137.986 95.944,139.345 82.199 C 140.501 70.511,136.236 61.937,127.533 58.452 C 122.138 56.292,119.456 56.029,102.789 56.029 L 89.160 56.029 89.160 87.594 M221.194 86.724 L 221.194 117.418 225.809 117.418 L 230.423 117.418 230.514 104.446 C 230.611 90.394,230.604 90.477,232.019 87.585 C 235.086 81.316,245.333 79.758,248.821 85.029 C 250.575 87.680,250.530 87.222,250.615 103.106 L 250.692 117.418 255.309 117.418 L 259.927 117.418 259.927 102.110 C 259.927 85.022,259.912 84.848,258.175 81.531 C 253.452 72.510,237.627 71.425,231.533 79.704 L 230.451 81.174 230.451 68.602 L 230.451 56.029 225.822 56.029 L 221.194 56.029 221.194 86.724 M269.564 56.767 C 264.535 57.643,263.494 65.285,268.116 67.401 C 271.695 69.040,276.268 67.647,277.168 64.643 C 278.739 59.399,275.243 55.778,269.564 56.767 M117.167 68.812 C 120.769 69.674,122.921 71.187,124.030 73.639 C 124.873 75.504,124.872 81.257,124.027 83.382 C 122.146 88.113,120.126 88.954,110.292 89.103 L 103.532 89.205 103.532 78.680 L 103.532 68.154 109.440 68.266 C 113.965 68.351,115.773 68.479,117.167 68.812 M195.030 74.333 C 183.249 75.845,176.557 85.433,177.818 98.991 C 178.938 111.023,185.847 117.681,197.632 118.082 C 207.512 118.419,214.289 114.637,217.056 107.244 C 217.744 105.404,217.834 105.486,213.483 104.022 C 211.360 103.308,209.499 102.680,209.348 102.626 C 209.196 102.572,209.004 102.890,208.919 103.335 C 206.860 114.128,190.757 113.076,187.708 101.949 C 184.774 91.239,190.029 81.608,198.807 81.608 C 203.597 81.608,208.526 85.579,208.526 89.438 C 208.526 89.582,208.663 89.645,208.831 89.579 C 214.467 87.351,217.296 86.137,217.296 85.945 C 217.296 85.813,216.780 84.701,216.149 83.474 C 212.525 76.428,204.791 73.081,195.030 74.333 M297.442 74.328 C 286.909 75.733,280.636 83.860,280.636 96.102 C 280.636 102.274,282.222 107.507,285.220 111.228 C 293.356 121.328,313.901 120.418,319.553 109.708 L 320.344 108.209 319.672 107.965 C 319.303 107.831,317.555 107.115,315.786 106.375 L 312.572 105.030 311.847 106.314 C 310.580 108.560,308.601 109.808,305.223 110.493 C 297.487 112.060,291.401 108.083,290.005 100.548 L 289.836 99.635 305.298 99.635 L 320.760 99.635 320.914 98.356 C 322.812 82.554,312.778 72.282,297.442 74.328 M376.370 74.329 C 364.867 75.858,358.208 86.000,359.788 99.587 C 361.216 111.867,368.164 117.972,380.755 118.011 C 389.588 118.039,394.512 115.872,398.096 110.383 C 399.581 108.107,399.751 108.425,396.285 106.992 C 394.644 106.314,392.898 105.589,392.407 105.381 L 391.513 105.004 390.992 106.079 C 388.321 111.596,377.739 112.517,372.623 107.679 C 370.870 106.021,368.819 101.784,368.819 99.822 C 368.819 99.719,375.765 99.635,384.256 99.635 L 399.693 99.635 399.844 98.721 C 402.387 83.333,391.755 72.284,376.370 74.329 M266.748 96.224 L 266.748 117.418 271.376 117.418 L 276.005 117.418 276.005 96.224 L 276.005 75.030 271.376 75.030 L 266.748 75.030 266.748 96.224 M317.905 75.215 C 317.905 75.316,321.676 84.826,326.285 96.347 L 334.665 117.296 339.744 117.360 L 344.823 117.423 353.075 96.689 C 357.613 85.285,361.380 75.746,361.446 75.492 C 361.562 75.050,361.359 75.030,356.728 75.030 L 351.888 75.030 345.920 92.079 C 342.637 101.456,339.889 109.129,339.813 109.131 C 339.737 109.133,337.058 101.462,333.861 92.083 L 328.048 75.030 322.976 75.030 C 320.187 75.030,317.905 75.113,317.905 75.215 M305.550 82.319 C 308.832 83.596,312.302 88.663,312.302 92.179 C 312.302 92.532,311.220 92.570,301.069 92.570 L 289.836 92.570 290.003 91.657 C 291.437 83.798,298.481 79.567,305.550 82.319 M384.970 82.540 C 388.253 84.156,391.230 88.643,391.230 91.974 L 391.230 92.570 380.005 92.570 L 368.780 92.570 368.938 91.778 C 369.745 87.744,371.724 84.587,374.448 82.991 C 377.257 81.344,382.118 81.136,384.970 82.540 " stroke="none" fill="#16D2AA" fill-rule="evenodd"></path></g></svg>