<svg xmlns="http://www.w3.org/2000/svg" width="24" height="22" viewBox="0 0 24 22">
  <path fill="#FF297E" d="M958.010015,650.669285 L958.086166,650.608103 C960.970177,648.313479 965.180085,648.500251 967.848252,651.168418 C970.717249,654.037415 970.717249,658.688978 967.848252,661.557975 L967.848252,661.557975 L963.649,665.756 L963.666526,665.773043 L959.280237,670.159332 C959.200404,670.239165 959.114939,670.310416 959.025183,670.372925 C958.415708,670.904583 957.489803,670.87936 956.909055,670.298612 L956.909055,670.298612 L956.861684,670.250808 L956.861684,670.250808 L956.838995,670.228552 L948.151748,661.541305 C945.282751,658.672308 945.282751,654.020745 948.151748,651.151748 C950.84973,648.453765 955.124102,648.292945 958.010015,650.669285 Z M966.680697,652.20052 C964.602559,650.188695 961.389932,650.040066 959.144167,651.754633 L961.807994,654.418138 C962.104641,654.286795 962.432903,654.213837 962.778206,654.213837 C964.10304,654.213837 965.17703,655.287827 965.17703,656.612661 C965.17703,657.937495 964.10304,659.011485 962.778206,659.011485 C961.453372,659.011485 960.379382,657.937495 960.379382,656.612661 C960.379382,656.201086 960.483033,655.813719 960.665657,655.475242 L957.458695,652.267698 C955.196814,650.005817 951.52958,650.005817 949.267698,652.267698 C947.005817,654.52958 947.005817,658.196814 949.267698,660.458695 L949.267698,660.458695 L957.938275,669.129272 C957.960932,669.151929 958.016152,669.157268 958.079155,669.130534 L961.451,665.756 L954.405073,658.710454 C954.10532,658.877184 953.7661,658.981532 953.404959,659.005951 L953.240721,659.011485 C951.915887,659.011485 950.841897,657.937495 950.841897,656.612661 C950.841897,655.287827 951.915887,654.213837 953.240721,654.213837 C954.565555,654.213837 955.639545,655.287827 955.639545,656.612661 C955.639545,656.947001 955.571145,657.265366 955.447575,657.554525 L962.55,664.657 L966.748972,660.458695 C968.949722,658.257946 969.009202,654.726782 966.927412,652.454118 L966.748972,652.267698 Z M962.778206,655.768453 C962.311963,655.768453 961.933998,656.146418 961.933998,656.612661 C961.933998,657.078904 962.311963,657.456868 962.778206,657.456868 C963.244449,657.456868 963.622413,657.078904 963.622413,656.612661 C963.622413,656.146418 963.244449,655.768453 962.778206,655.768453 Z M953.240721,655.768453 C952.774478,655.768453 952.396513,656.146418 952.396513,656.612661 C952.396513,657.078904 952.774478,657.456868 953.240721,657.456868 C953.706964,657.456868 954.084928,657.078904 954.084928,656.612661 C954.084928,656.146418 953.706964,655.768453 953.240721,655.768453 Z" transform="translate(-946 -649)"/>
</svg>
