<svg xmlns="http://www.w3.org/2000/svg" width="345" height="345" viewBox="0 0 345 345">
  <g fill="none" fill-rule="evenodd">
    <g transform="translate(0 115)">
      <circle cx="287.5" cy="57.5" r="57.5" fill="#6EEEE1"/>
      <path fill="#FFBFD9" d="M115,0 L115,115 L0,115 L0,0 L115,0 Z M57.5,36 C45.6258779,36 36,45.6258779 36,57.5 C36,69.3741221 45.6258779,79 57.5,79 C69.3741221,79 79,69.3741221 79,57.5 C79,45.6258779 69.3741221,36 57.5,36 Z"/>
      <polygon fill="#07BEB8" points="172.5 0 230 115 115 115"/>
    </g>
    <path fill="#4A29B3" d="M345,-2.13162821e-14 L345.000749,57.4862303 C342.713158,57.1657195 340.375932,57 338,57 C310.385763,57 288,79.3857625 288,107 C288,109.723167 288.217698,112.395488 288.63664,115.000509 L230,115 L230,-2.13162821e-14 L345,-2.13162821e-14 Z"/>
    <polygon fill="#CFBFFF" points="116 0 231 0 116 115"/>
    <rect width="58" height="115" fill="#78F1E5"/>
    <g transform="translate(0 230)">
      <path fill="#FF9EC4" d="M230,0 L230,115 L212,115 L212,115 C212,87.3857625 194.315248,65 172.5,65 C150.684752,65 133,87.3857625 133,115 L115,115 L115,0 L230,0 Z"/>
      <path fill="#9E7FFF" d="M57.5,57 C89.2563731,57 115,82.7436269 115,114.5 C115,114.667139 114.999287,114.834111 114.997864,115.000914 L0.004,115 L0,114.5 C0,83.0611906 25.2313287,57.5154738 56.5491324,57.0077034 Z"/>
      <path fill="#FF297E" d="M287.5,0 L345,57.7510917 L288.001,57.751 L345,115 L230,115 L286.999,57.751 L230,57.7510917 L287.5,0 Z"/>
    </g>
    <rect width="345" height="345" fill="#FFF" fill-opacity=".9"/>
  </g>
</svg>
